<svg width="64" height="64" viewBox="0 0 64 64" fill="none" xmlns="http://www.w3.org/2000/svg">
<style>
    @media (color-gamut: p3) {
      rect {
        fill: oklch(98.78% 0.0044 179.74)
      }
      path {
        fill: oklch(67.76% 0.17847082652186746 248.71180632010794)
      }
    }
  </style>
<g clip-path="url(#clip0_1145_383)">
<rect width="64" height="64" fill="#F8FCFB"/>
<path d="M58.5401 26.7225C62.916 21.1655 62.7547 12.89 57.5203 7.52381C52.7666 2.59062 44.9643 1.55203 38.9875 5.4805C38.9184 5.52694 38.8664 5.56145 38.8042 5.6035C38.7044 5.67315 38.626 5.7265 38.5344 5.79176C38.0706 6.12625 37.6677 6.44755 37.2441 6.82848C36.9046 7.23199 36.5413 7.36566 36.663 7.38198C36.0229 8.02082 17.5108 26.5342 12.7075 31.3375C12.0837 31.9613 12.0837 32.9729 12.7075 33.5967L31.1318 52.0209C31.7556 52.6447 32.7672 52.6447 33.391 52.0209L57.0591 28.3529C57.2737 28.1018 57.3503 28.1671 58.5401 26.7225ZM7.15997 51.645C5.52645 53.2786 5.52645 55.9356 7.15997 57.5691C8.79348 59.2026 11.4505 59.2026 13.0841 57.5691L23.8779 46.7752L17.9538 40.8512L7.15997 51.645Z" fill="#199CFF"/>
</g>
<defs>
<clipPath id="clip0_1145_383">
<rect width="64" height="64" fill="#F8FCFB"/>
</clipPath>
</defs>
</svg>
