<svg viewBox="0 0 352 73" fill="none" xmlns="http://www.w3.org/2000/svg">
<path d="M195.414 42.2526C194.144 47.3925 195.044 53.3455 197.996 57.9059C183.958 66.998 165.521 65.5897 153.334 54.1858C160.384 49.1991 166.446 42.7574 171.016 35.1564L171.027 35.1382L171.037 35.1195C173.125 31.287 175.53 26.801 176.86 22.1648C178.193 17.5149 178.477 12.6005 176.194 7.96906L176.18 7.93932L176.163 7.91062C173.389 3.11273 168.574 1.65269 163.925 2.32976C159.819 2.92752 155.739 5.19173 153.052 8.39514C150.955 5.17967 148.379 3.18807 145.604 2.2756C142.479 1.24827 139.217 1.62705 136.29 2.99217C130.467 5.70871 125.846 12.3781 125.856 20.1979L125.856 20.2051L125.856 20.2123C125.96 26.7995 128.281 32.7783 131.478 38.2859C134.321 43.1833 137.893 47.7664 141.265 52.0929C141.424 52.296 141.582 52.4986 141.739 52.7006C130.386 58.1918 117.302 59.8562 104.654 56.8993C99.2536 55.6361 94.2906 53.34 89.3216 50.8254C88.3453 50.3313 87.3673 49.8279 86.3855 49.3226C82.4003 47.2715 78.3522 45.188 74.0976 43.5609C64.3012 39.765 51.5524 38.6364 42.6984 46.0348C28.2345 41.9463 10.9297 46.7639 2.09478 59.3591L2.09476 59.3591C1.15507 60.6988 1.57785 62.2346 2.47781 63.0789C2.93176 63.5047 3.55262 63.8044 4.24893 63.8009C4.96832 63.7973 5.6483 63.4704 6.18361 62.8603L6.18593 62.8577C14.0433 53.8386 26.2625 49.4021 38.0645 51.6656C36.5502 54.4195 35.8692 57.6866 36.1864 60.7852C36.5544 64.3803 38.2786 67.8106 41.6766 69.8918C45.3612 72.1848 50.647 72.5528 54.3156 69.6603L54.3219 69.6553L54.3282 69.6502C58.2479 66.4559 58.6014 62.0021 57.1703 58.0465C55.9738 54.7393 53.508 51.6677 50.6765 49.6984C56.855 46.8294 63.2548 47.5052 69.6602 49.6927C74.5196 51.3521 79.2494 53.8265 83.8262 56.2208C85.8504 57.2797 87.8446 58.323 89.807 59.2732C107.526 67.9085 129.484 67.7739 146.755 58.2735C161.466 73.7402 185.714 76.012 203.135 63.7624C211.515 70.4826 221.082 70.9734 230.538 69.0206C237.867 67.5069 245.262 64.4917 252.078 61.7125C254.206 60.8448 256.278 60.0001 258.273 59.2313C286.414 48.981 318.766 51.5037 345.305 65.3071C346.198 65.787 347.117 65.8208 347.918 65.5002C348.694 65.1897 349.283 64.5788 349.635 63.89C349.987 63.2003 350.136 62.3655 349.95 61.5517C349.758 60.7153 349.225 59.9634 348.337 59.4773C322 44.5688 289.719 41.257 260.84 50.1987C256.541 51.4204 252.087 53.2705 247.611 55.1458L247.19 55.3222C242.827 57.1505 238.439 58.9896 234.053 60.3467C225.39 63.027 216.933 63.7657 209.03 58.8888C213.148 54.8642 217.14 49.5232 218.12 43.5877C218.871 40.2952 217.948 36.9107 215.967 34.4866C213.969 32.0433 210.859 30.5392 207.284 31.1329C200.67 32.0657 196.775 36.7455 195.414 42.2526ZM139.364 36.876L139.349 36.8533L139.333 36.8314C136.475 32.837 133.882 27.3668 133.305 22.1862C132.734 17.0539 134.133 12.3354 139.095 9.42616C141.204 8.2058 144.001 8.81528 145.987 10.5135C147.953 12.1943 148.783 14.6273 147.46 16.8488L147.456 16.8561L147.452 16.8635C146.925 17.7843 146.843 18.7379 147.156 19.5821C147.46 20.3993 148.095 21.0085 148.814 21.3679C150.24 22.0807 152.31 21.9317 153.475 20.1293L153.49 20.1065L153.503 20.083C153.593 19.9261 153.683 19.7684 153.773 19.6102C154.872 17.6855 156.018 15.6775 157.397 13.9106C158.883 12.0055 160.582 10.4602 162.669 9.64825L162.328 8.77142L162.669 9.64821C164.602 8.89634 166.569 8.85798 168.096 9.48734C169.572 10.0956 170.731 11.3613 171.095 13.4734C171.688 19.6882 168.537 27.0499 163.769 33.7581C159.224 40.1517 153.341 45.7663 148.279 48.9874C144.98 45.2374 142.064 41.1145 139.364 36.876ZM50.2214 63.6693C49.9333 63.9683 49.4754 64.2303 48.7277 64.3284C47.2245 64.4491 46.1353 64.0599 45.3624 63.4285C44.5712 62.7824 44.0265 61.8121 43.7635 60.6472C43.2842 58.5243 43.7897 55.9774 45.125 54.1951C47.0525 55.3386 48.6899 56.8332 49.8722 58.7485C50.554 59.8534 50.9375 61.2771 50.7844 62.3946C50.7103 62.9358 50.518 63.3616 50.2214 63.6693ZM202.32 45.5457C202.613 42.5775 204.033 40.0478 206.929 38.8845C208.295 38.3749 209.538 38.3962 210.236 39.1532C211.429 41.1222 210.772 43.8445 209.018 46.8086C207.571 49.2548 205.536 51.5835 203.887 53.2396C202.685 50.9609 202.064 48.1326 202.32 45.5457Z"/>
</svg>
